<?xml version="1.0" encoding="UTF-8"?>
<!DOCTYPE svg PUBLIC "-//W3C//DTD SVG 1.1//EN" "http://www.w3.org/Graphics/SVG/1.1/DTD/svg11.dtd">
<!-- Creator: CorelDRAW 2019 (64-Bit) -->
<svg xmlns="http://www.w3.org/2000/svg" xml:space="preserve" width="50mm" height="33.114mm" version="1.1" style="shape-rendering:geometricPrecision; text-rendering:geometricPrecision; image-rendering:optimizeQuality; fill-rule:evenodd; clip-rule:evenodd"
viewBox="0 0 5000 3311.4"
 xmlns:xlink="http://www.w3.org/1999/xlink">
 <defs>
  <style type="text/css">
   <![CDATA[
    .fil1 {fill:#D9EFFC}
    .fil0 {fill:#A2D9F7}
    .fil2 {fill:#72C3EE}
   ]]>
  </style>
 </defs>
 <g id="Слой_x0020_1">
  <metadata id="CorelCorpID_0Corel-Layer"/>
  <g id="_2833997941968">
   <polygon class="fil0" points="739.26,3318.55 1206.1,3318.55 1812.54,2694.64 1202.78,2694.64 1206.1,1114.18 755.58,1114.18 "/>
   <polygon class="fil0" points="1204.01,641.17 1204.01,489.99 1639.53,489.99 1639.53,23.15 289.88,23.15 289.88,489.99 737.17,489.99 737.17,641.17 "/>
   <polygon class="fil0" points="3784.11,2691.13 3784.11,2888.44 3387.79,2888.44 3387.79,3312.48 4745.41,3312.48 4745.41,2888.44 4290.24,2888.44 4290.24,2691.13 "/>
   <polygon class="fil0" points="4290.24,473.95 4745.41,473.95 4745.41,7.11 3784.11,7.11 3163.9,646.68 3784.02,646.77 3784.11,2220.21 4290.24,2221.25 "/>
   <path class="fil1" d="M747.42 2219.17c-67.57,-0.1 -107.43,-0.29 -109.71,-0.29 -180.51,0 -190.95,-151.09 -190.95,-151.09l-447.29 0c0,406.86 182.88,618.22 638.24,624.1 38.63,0 67.48,0 106.1,0l3.61 -472.72z"/>
   <path class="fil1" d="M1203.82 2695.69c585.38,0 1184.9,-3.8 1769.51,-3.8 423.76,0 668.52,-231.95 668.52,-564.69 0,-332.74 -188.3,-455.16 -188.3,-455.16 0,0 200.92,-156.88 200.92,-473.96 0,-30.37 -3.51,-59.98 -10.06,-88.74l-391.3 0c1.9,6.83 2.95,14.05 2.95,21.92 -8.64,75.45 -109.71,165.61 -214.11,276.08l-422.9 462.76 342.14 0c98.89,0 178.99,76.4 178.99,175.29 0,98.9 -80.1,179 -178.99,179 -44.52,0 -1083.92,1.23 -1757.46,-0.29l0.09 471.59z"/>
   <path class="fil2" d="M4291 1109.25c23.54,0 47.36,0.09 70.99,0.09 179.09,0.19 190.19,155.93 190.19,155.93l447.29 0c0,-404.96 -180.42,-629.41 -631.03,-624 -24.77,0.28 -53.14,0.95 -78.2,0.95 -0.09,0 1.05,467.03 0.76,467.03z"/>
   <path class="fil2" d="M4373.47 2691.7c446.82,-9.3 626,-220.47 626,-623.91l-447.29 0c0,0 -9.68,153.56 -190.19,153.56l-727.07 -1.42c-42.61,281.29 -279.21,470.16 -661.59,470.16 0,0 1211.47,1.61 1400.14,1.61z"/>
   <path class="fil2" d="M3785.63 1109.34c-1.23,0 -1.14,-463.8 -2.18,-463.8 -434.39,0.85 -866.02,-1.52 -1297.36,-4.37 -477.28,-3.22 -886.8,295.54 -978.29,774.62l449.19 1.61c101.83,-211.07 337.67,-307.11 533.37,-308.06 433.91,0 862.22,0 1295.27,0z"/>
   <path class="fil1" d="M2486.09 641.27l-1227.13 0 -494.27 0 -126.98 0c-455.36,5.88 -638.24,217.24 -638.24,624.1l447.29 0c0,0 10.44,-151.09 190.95,-151.09 17.08,0 56.18,0 119.11,0 109.61,0 241.63,0 448.8,0l413.6 -0.57c173.01,-299.05 499.87,-475 866.87,-472.44z"/>
   <path class="fil0" d="M3041.95 1407.34c104.4,-110.47 205.47,-200.63 214.11,-276.08 0,-7.87 -1.05,-15.09 -2.95,-21.92l-564.59 0 -741.87 781.26c59.6,153.75 206.42,272.86 368.51,312.43l726.79 -795.69z"/>
   <polygon class="fil1" points="2394.6,1418.83 1325.68,1415.13 1325.68,1888.7 1946.65,1890.6 "/>
   <path class="fil2" d="M1541.68 1889.37c24.58,127.36 66.15,238.4 124.05,335.4 305.4,0.19 855.57,0 855.57,0 -82.28,1.13 -157.73,-6.65 -236.6,-30.56 -149.95,-46.22 -282.16,-159.45 -338.05,-303.61l-404.97 -1.23z"/>
  </g>
 </g>
</svg>
